<mxfile host="app.diagrams.net" agent="Mozilla/5.0 (Windows NT 10.0; Win64; x64) AppleWebKit/537.36 (KHTML, like Gecko) Chrome/129.0.0.0 Safari/537.36" version="24.7.17">
  <diagram id="R2lEEEUBdFMjLlhIrx00" name="Page-1">
    <mxGraphModel dx="954" dy="600" grid="1" gridSize="10" guides="1" tooltips="1" connect="1" arrows="1" fold="1" page="1" pageScale="1" pageWidth="850" pageHeight="1100" math="0" shadow="0" extFonts="Permanent Marker^https://fonts.googleapis.com/css?family=Permanent+Marker">
      <root>
        <mxCell id="0" />
        <mxCell id="1" parent="0" />
        <mxCell id="tjZ7oRbht85BkgBcy6XE-2" value="고객" style="whiteSpace=wrap;html=1;align=center;" vertex="1" parent="1">
          <mxGeometry x="340" y="190" width="100" height="40" as="geometry" />
        </mxCell>
        <mxCell id="tjZ7oRbht85BkgBcy6XE-3" value="고객명" style="ellipse;whiteSpace=wrap;html=1;align=center;" vertex="1" parent="1">
          <mxGeometry x="200" y="110" width="100" height="40" as="geometry" />
        </mxCell>
        <mxCell id="tjZ7oRbht85BkgBcy6XE-4" value="" style="endArrow=none;html=1;rounded=0;entryX=0.5;entryY=0;entryDx=0;entryDy=0;" edge="1" parent="1" source="tjZ7oRbht85BkgBcy6XE-3" target="tjZ7oRbht85BkgBcy6XE-2">
          <mxGeometry relative="1" as="geometry">
            <mxPoint x="290" y="129" as="sourcePoint" />
            <mxPoint x="620" y="320" as="targetPoint" />
          </mxGeometry>
        </mxCell>
        <mxCell id="tjZ7oRbht85BkgBcy6XE-5" value="가입일" style="ellipse;whiteSpace=wrap;html=1;align=center;" vertex="1" parent="1">
          <mxGeometry x="340" y="290" width="100" height="40" as="geometry" />
        </mxCell>
        <mxCell id="tjZ7oRbht85BkgBcy6XE-6" value="주소" style="ellipse;whiteSpace=wrap;html=1;align=center;" vertex="1" parent="1">
          <mxGeometry x="200" y="190" width="100" height="40" as="geometry" />
        </mxCell>
        <mxCell id="tjZ7oRbht85BkgBcy6XE-11" value="전화번호" style="ellipse;whiteSpace=wrap;html=1;align=center;fontStyle=4;" vertex="1" parent="1">
          <mxGeometry x="320" y="110" width="100" height="40" as="geometry" />
        </mxCell>
        <mxCell id="tjZ7oRbht85BkgBcy6XE-12" value="이메일" style="ellipse;whiteSpace=wrap;html=1;align=center;fontStyle=4;" vertex="1" parent="1">
          <mxGeometry x="445" y="110" width="100" height="40" as="geometry" />
        </mxCell>
        <mxCell id="tjZ7oRbht85BkgBcy6XE-13" value="Attribute" style="ellipse;whiteSpace=wrap;html=1;align=center;fontStyle=4;" vertex="1" parent="1">
          <mxGeometry x="460" y="250" width="100" height="40" as="geometry" />
        </mxCell>
        <mxCell id="tjZ7oRbht85BkgBcy6XE-14" value="고객코드" style="ellipse;whiteSpace=wrap;html=1;align=center;fontStyle=4;" vertex="1" parent="1">
          <mxGeometry x="490" y="190" width="100" height="40" as="geometry" />
        </mxCell>
        <mxCell id="tjZ7oRbht85BkgBcy6XE-16" value="" style="endArrow=none;html=1;rounded=0;" edge="1" parent="1" source="tjZ7oRbht85BkgBcy6XE-6" target="tjZ7oRbht85BkgBcy6XE-2">
          <mxGeometry relative="1" as="geometry">
            <mxPoint x="470" y="310" as="sourcePoint" />
            <mxPoint x="630" y="310" as="targetPoint" />
          </mxGeometry>
        </mxCell>
        <mxCell id="tjZ7oRbht85BkgBcy6XE-18" value="" style="endArrow=none;html=1;rounded=0;" edge="1" parent="1" source="tjZ7oRbht85BkgBcy6XE-2" target="tjZ7oRbht85BkgBcy6XE-11">
          <mxGeometry relative="1" as="geometry">
            <mxPoint x="470" y="310" as="sourcePoint" />
            <mxPoint x="630" y="310" as="targetPoint" />
          </mxGeometry>
        </mxCell>
        <mxCell id="tjZ7oRbht85BkgBcy6XE-19" value="" style="endArrow=none;html=1;rounded=0;" edge="1" parent="1" source="tjZ7oRbht85BkgBcy6XE-2" target="tjZ7oRbht85BkgBcy6XE-13">
          <mxGeometry relative="1" as="geometry">
            <mxPoint x="427" y="200" as="sourcePoint" />
            <mxPoint x="444" y="179" as="targetPoint" />
          </mxGeometry>
        </mxCell>
        <mxCell id="tjZ7oRbht85BkgBcy6XE-20" value="" style="endArrow=none;html=1;rounded=0;" edge="1" parent="1" source="tjZ7oRbht85BkgBcy6XE-5" target="tjZ7oRbht85BkgBcy6XE-2">
          <mxGeometry relative="1" as="geometry">
            <mxPoint x="437" y="210" as="sourcePoint" />
            <mxPoint x="454" y="189" as="targetPoint" />
          </mxGeometry>
        </mxCell>
        <mxCell id="tjZ7oRbht85BkgBcy6XE-21" value="" style="endArrow=none;html=1;rounded=0;" edge="1" parent="1" source="tjZ7oRbht85BkgBcy6XE-2" target="tjZ7oRbht85BkgBcy6XE-14">
          <mxGeometry relative="1" as="geometry">
            <mxPoint x="447" y="220" as="sourcePoint" />
            <mxPoint x="464" y="199" as="targetPoint" />
          </mxGeometry>
        </mxCell>
        <mxCell id="tjZ7oRbht85BkgBcy6XE-22" value="" style="endArrow=none;html=1;rounded=0;" edge="1" parent="1" source="tjZ7oRbht85BkgBcy6XE-2" target="tjZ7oRbht85BkgBcy6XE-12">
          <mxGeometry relative="1" as="geometry">
            <mxPoint x="457" y="230" as="sourcePoint" />
            <mxPoint x="474" y="209" as="targetPoint" />
          </mxGeometry>
        </mxCell>
        <mxCell id="tjZ7oRbht85BkgBcy6XE-23" value="상세주소" style="ellipse;whiteSpace=wrap;html=1;align=center;" vertex="1" parent="1">
          <mxGeometry x="80" y="230" width="100" height="40" as="geometry" />
        </mxCell>
        <mxCell id="tjZ7oRbht85BkgBcy6XE-24" value="기본주소" style="ellipse;whiteSpace=wrap;html=1;align=center;" vertex="1" parent="1">
          <mxGeometry x="80" y="150" width="100" height="40" as="geometry" />
        </mxCell>
        <mxCell id="tjZ7oRbht85BkgBcy6XE-25" value="" style="endArrow=none;html=1;rounded=0;" edge="1" parent="1" source="tjZ7oRbht85BkgBcy6XE-24" target="tjZ7oRbht85BkgBcy6XE-6">
          <mxGeometry relative="1" as="geometry">
            <mxPoint x="310" y="220" as="sourcePoint" />
            <mxPoint x="350" y="220" as="targetPoint" />
          </mxGeometry>
        </mxCell>
        <mxCell id="tjZ7oRbht85BkgBcy6XE-26" value="" style="endArrow=none;html=1;rounded=0;" edge="1" parent="1" source="tjZ7oRbht85BkgBcy6XE-23" target="tjZ7oRbht85BkgBcy6XE-6">
          <mxGeometry relative="1" as="geometry">
            <mxPoint x="320" y="230" as="sourcePoint" />
            <mxPoint x="360" y="230" as="targetPoint" />
          </mxGeometry>
        </mxCell>
        <mxCell id="tjZ7oRbht85BkgBcy6XE-27" value="가입일" style="ellipse;whiteSpace=wrap;html=1;align=center;" vertex="1" parent="1">
          <mxGeometry x="210" y="290" width="100" height="40" as="geometry" />
        </mxCell>
        <mxCell id="tjZ7oRbht85BkgBcy6XE-28" value="" style="endArrow=none;html=1;rounded=0;" edge="1" parent="1" source="tjZ7oRbht85BkgBcy6XE-27" target="tjZ7oRbht85BkgBcy6XE-2">
          <mxGeometry relative="1" as="geometry">
            <mxPoint x="400" y="300" as="sourcePoint" />
            <mxPoint x="400" y="240" as="targetPoint" />
          </mxGeometry>
        </mxCell>
      </root>
    </mxGraphModel>
  </diagram>
</mxfile>
